<svg width="16" height="16" viewBox="0 0 16 16" fill="none" xmlns="http://www.w3.org/2000/svg">
<path d="M10.2664 6.58497L7.20709 3.52763C7.08015 3.41286 6.91394 3.3513 6.74286 3.35569C6.57179 3.36008 6.40895 3.43009 6.28807 3.55123C6.16719 3.67237 6.09752 3.83535 6.09349 4.00644C6.08946 4.17752 6.15138 4.34361 6.26642 4.4703L9.32376 7.52763C9.44874 7.65265 9.51895 7.82219 9.51895 7.99897C9.51895 8.17574 9.44874 8.34528 9.32376 8.4703L6.26642 11.5276C6.14142 11.6527 6.07123 11.8224 6.07129 11.9992C6.07135 12.176 6.14166 12.3456 6.26676 12.4706C6.39185 12.5956 6.56148 12.6658 6.73833 12.6658C6.91517 12.6657 7.08475 12.5954 7.20976 12.4703L10.2664 9.41297C10.6414 9.03791 10.852 8.52929 10.852 7.99897C10.852 7.46864 10.6414 6.96002 10.2664 6.58497Z" fill="#18191F"/>
</svg>
