<svg width="16" height="16" viewBox="0 0 16 16" fill="none" xmlns="http://www.w3.org/2000/svg">
<path d="M7.06628 8.46965C6.9413 8.34463 6.87109 8.17509 6.87109 7.99832C6.87109 7.82154 6.9413 7.652 7.06628 7.52698L10.1229 4.46965C10.2444 4.34392 10.3116 4.17552 10.3101 4.00072C10.3085 3.82592 10.2384 3.65871 10.1148 3.53511C9.99122 3.4115 9.82401 3.34139 9.64921 3.33987C9.47442 3.33835 9.30601 3.40555 9.18028 3.52699L6.12561 6.58432C5.75067 6.95937 5.54004 7.46799 5.54004 7.99832C5.54004 8.52865 5.75067 9.03726 6.12561 9.41232L9.18295 12.4697C9.30868 12.5911 9.47708 12.6583 9.65188 12.6568C9.82668 12.6552 9.99389 12.5851 10.1175 12.4615C10.2411 12.3379 10.3112 12.1707 10.3127 11.9959C10.3142 11.8211 10.2471 11.6527 10.1256 11.527L7.06628 8.46965Z" fill="#A6A6A6"/>
</svg>
