<svg width="24" height="24" viewBox="0 0 24 24" fill="none" xmlns="http://www.w3.org/2000/svg">
<g clip-path="url(#clip0_8906_34289)">
<path d="M23.7146 22.3135L17.792 16.3909C19.4059 14.417 20.1995 11.8982 20.0084 9.35562C19.8174 6.81302 18.6564 4.44111 16.7656 2.73051C14.8748 1.01991 12.3988 0.101485 9.84986 0.165218C7.30089 0.22895 4.87392 1.26996 3.07096 3.07292C1.26801 4.87588 0.226997 7.30284 0.163264 9.85182C0.0995322 12.4008 1.01795 14.8767 2.72856 16.7676C4.43916 18.6584 6.81107 19.8194 9.35367 20.0104C11.8963 20.2014 14.415 19.4079 16.389 17.7939L22.3116 23.7165C22.4987 23.8972 22.7493 23.9973 23.0095 23.995C23.2696 23.9927 23.5185 23.8884 23.7025 23.7044C23.8864 23.5205 23.9908 23.2716 23.993 23.0114C23.9953 22.7513 23.8953 22.5006 23.7146 22.3135ZM10.1141 18.0539C8.5442 18.0539 7.00951 17.5883 5.70415 16.7161C4.39879 15.8439 3.38138 14.6042 2.78059 13.1538C2.1798 11.7033 2.0226 10.1073 2.32888 8.56752C2.63517 7.02774 3.39117 5.61336 4.50129 4.50324C5.61141 3.39312 7.02578 2.63712 8.56556 2.33084C10.1053 2.02456 11.7014 2.18175 13.1518 2.78254C14.6022 3.38334 15.842 4.40074 16.7142 5.7061C17.5864 7.01147 18.0519 8.54616 18.0519 10.1161C18.0496 12.2206 17.2125 14.2382 15.7244 15.7264C14.2363 17.2145 12.2187 18.0515 10.1141 18.0539Z" fill="#A6A6A6"/>
</g>
<defs>
<clipPath id="clip0_8906_34289">
<rect width="23.8134" height="23.8134" fill="white" transform="translate(0.192383 0.193359)"/>
</clipPath>
</defs>
</svg>
